<?xml version="1.0" encoding="UTF-8" standalone="no"?>
<!DOCTYPE svg PUBLIC "-//W3C//DTD SVG 1.1//EN"
 "http://www.w3.org/Graphics/SVG/1.1/DTD/svg11.dtd">
<!-- Generated by graphviz version 2.38.0 (20140413.2041)
 -->
<!-- Title: %3 Pages: 1 -->
<svg width="756pt" height="1348pt"
 viewBox="0.00 0.00 755.50 1348.00" xmlns="http://www.w3.org/2000/svg" xmlns:xlink="http://www.w3.org/1999/xlink">
<g id="graph0" class="graph" transform="scale(1 1) rotate(0) translate(4 1344)">
<title>%3</title>
<polygon fill="white" stroke="none" points="-4,4 -4,-1344 751.5,-1344 751.5,4 -4,4"/>
<!-- 22 -->
<g id="node1" class="node"><title>22</title>
<g id="a_node1"><a xlink:title="/usr/lib/python3.5/http/client.py">
<polygon fill="#fa1f01" stroke="#fa1f01" points="169,-420 84,-420 84,-368 169,-368 169,-420"/>
<text text-anchor="middle" x="126.5" y="-408" font-family="Arial" font-size="10.00" fill="#ffffff">client:275:begin</text>
<text text-anchor="middle" x="126.5" y="-397" font-family="Arial" font-size="10.00" fill="#ffffff">97.02%</text>
<text text-anchor="middle" x="126.5" y="-386" font-family="Arial" font-size="10.00" fill="#ffffff">(0.01%)</text>
<text text-anchor="middle" x="126.5" y="-375" font-family="Arial" font-size="10.00" fill="#ffffff">74×</text>
</a>
</g>
</g>
<!-- 411 -->
<g id="node2" class="node"><title>411</title>
<g id="a_node2"><a xlink:title="/usr/lib/python3.5/http/client.py">
<polygon fill="#fa2001" stroke="#fa2001" points="185.5,-328 67.5,-328 67.5,-276 185.5,-276 185.5,-328"/>
<text text-anchor="middle" x="126.5" y="-316" font-family="Arial" font-size="10.00" fill="#ffffff">client:242:_read_status</text>
<text text-anchor="middle" x="126.5" y="-305" font-family="Arial" font-size="10.00" fill="#ffffff">96.85%</text>
<text text-anchor="middle" x="126.5" y="-294" font-family="Arial" font-size="10.00" fill="#ffffff">(0.01%)</text>
<text text-anchor="middle" x="126.5" y="-283" font-family="Arial" font-size="10.00" fill="#ffffff">74×</text>
</a>
</g>
</g>
<!-- 22&#45;&gt;411 -->
<g id="edge1" class="edge"><title>22&#45;&gt;411</title>
<path fill="none" stroke="#fa2001" stroke-width="3.87" d="M126.5,-367.93C126.5,-358.743 126.5,-348.166 126.5,-338.253"/>
<polygon fill="#fa2001" stroke="#fa2001" stroke-width="3.87" points="129.93,-338.048 126.5,-328.248 123.07,-338.048 129.93,-338.048"/>
<text text-anchor="middle" x="143.5" y="-351" font-family="Arial" font-size="10.00" fill="#fa2001">96.85%</text>
<text text-anchor="middle" x="143.5" y="-340" font-family="Arial" font-size="10.00" fill="#fa2001">74×</text>
</g>
<!-- 342 -->
<g id="node18" class="node"><title>342</title>
<g id="a_node18"><a xlink:title="~">
<polygon fill="#fa2001" stroke="#fa2001" points="253,-236 0,-236 0,-184 253,-184 253,-236"/>
<text text-anchor="middle" x="126.5" y="-224" font-family="Arial" font-size="10.00" fill="#ffffff">~:0:&lt;method &#39;readline&#39; of &#39;_io.BufferedReader&#39; objects&gt;</text>
<text text-anchor="middle" x="126.5" y="-213" font-family="Arial" font-size="10.00" fill="#ffffff">96.85%</text>
<text text-anchor="middle" x="126.5" y="-202" font-family="Arial" font-size="10.00" fill="#ffffff">(0.02%)</text>
<text text-anchor="middle" x="126.5" y="-191" font-family="Arial" font-size="10.00" fill="#ffffff">962×</text>
</a>
</g>
</g>
<!-- 411&#45;&gt;342 -->
<g id="edge19" class="edge"><title>411&#45;&gt;342</title>
<path fill="none" stroke="#fa2001" stroke-width="3.87" d="M126.5,-275.93C126.5,-266.743 126.5,-256.166 126.5,-246.253"/>
<polygon fill="#fa2001" stroke="#fa2001" stroke-width="3.87" points="129.93,-246.048 126.5,-236.248 123.07,-246.048 129.93,-246.048"/>
<text text-anchor="middle" x="143.5" y="-259" font-family="Arial" font-size="10.00" fill="#fa2001">96.84%</text>
<text text-anchor="middle" x="143.5" y="-248" font-family="Arial" font-size="10.00" fill="#fa2001">74×</text>
</g>
<!-- 35 -->
<g id="node3" class="node"><title>35</title>
<g id="a_node3"><a xlink:title="/usr/lib/python3.5/site&#45;packages/yaml/serializer.py">
<polygon fill="#0d0f73" stroke="#0d0f73" points="675.5,-972 567.5,-972 567.5,-920 675.5,-920 675.5,-972"/>
<text text-anchor="middle" x="621.5" y="-960" font-family="Arial" font-size="10.00" fill="#ffffff">serializer:46:serialize</text>
<text text-anchor="middle" x="621.5" y="-949" font-family="Arial" font-size="10.00" fill="#ffffff">0.55%</text>
<text text-anchor="middle" x="621.5" y="-938" font-family="Arial" font-size="10.00" fill="#ffffff">(0.00%)</text>
<text text-anchor="middle" x="621.5" y="-927" font-family="Arial" font-size="10.00" fill="#ffffff">1×</text>
</a>
</g>
</g>
<!-- 348 -->
<g id="node4" class="node"><title>348</title>
<g id="a_node4"><a xlink:title="/usr/lib/python3.5/site&#45;packages/yaml/serializer.py">
<polygon fill="#0d0f73" stroke="#0d0f73" points="701.5,-880 567.5,-880 567.5,-828 701.5,-828 701.5,-880"/>
<text text-anchor="middle" x="634.5" y="-868" font-family="Arial" font-size="10.00" fill="#ffffff">serializer:78:serialize_node</text>
<text text-anchor="middle" x="634.5" y="-857" font-family="Arial" font-size="10.00" fill="#ffffff">0.54%</text>
<text text-anchor="middle" x="634.5" y="-846" font-family="Arial" font-size="10.00" fill="#ffffff">(0.02%)</text>
<text text-anchor="middle" x="634.5" y="-835" font-family="Arial" font-size="10.00" fill="#ffffff">425×</text>
</a>
</g>
</g>
<!-- 35&#45;&gt;348 -->
<g id="edge2" class="edge"><title>35&#45;&gt;348</title>
<path fill="none" stroke="#0d0f73" stroke-width="0.5" d="M625.121,-919.93C626.742,-908.712 628.661,-895.422 630.34,-883.798"/>
<polygon fill="#0d0f73" stroke="#0d0f73" stroke-width="0.5" points="631.565,-883.887 630.853,-880.248 629.14,-883.537 631.565,-883.887"/>
<text text-anchor="middle" x="644.5" y="-903" font-family="Arial" font-size="10.00" fill="#0d0f73">0.54%</text>
<text text-anchor="middle" x="644.5" y="-892" font-family="Arial" font-size="10.00" fill="#0d0f73">1×</text>
</g>
<!-- 348&#45;&gt;348 -->
<g id="edge17" class="edge"><title>348&#45;&gt;348</title>
<path fill="none" stroke="#0d0f73" stroke-width="0.5" d="M701.699,-860.601C707.132,-859.165 710.5,-856.965 710.5,-854 710.5,-851.776 708.606,-849.983 705.366,-848.619"/>
<polygon fill="#0d0f73" stroke="#0d0f73" stroke-width="0.5" points="705.407,-847.341 701.699,-847.399 704.633,-849.666 705.407,-847.341"/>
<text text-anchor="middle" x="724.5" y="-857" font-family="Arial" font-size="10.00" fill="#0d0f73">0.54%</text>
<text text-anchor="middle" x="724.5" y="-846" font-family="Arial" font-size="10.00" fill="#0d0f73">3×</text>
</g>
<!-- 74 -->
<g id="node14" class="node"><title>74</title>
<g id="a_node14"><a xlink:title="/usr/lib/python3.5/site&#45;packages/yaml/emitter.py">
<polygon fill="#0d0f73" stroke="#0d0f73" points="678.5,-788 592.5,-788 592.5,-736 678.5,-736 678.5,-788"/>
<text text-anchor="middle" x="635.5" y="-776" font-family="Arial" font-size="10.00" fill="#ffffff">emitter:111:emit</text>
<text text-anchor="middle" x="635.5" y="-765" font-family="Arial" font-size="10.00" fill="#ffffff">0.52%</text>
<text text-anchor="middle" x="635.5" y="-754" font-family="Arial" font-size="10.00" fill="#ffffff">(0.01%)</text>
<text text-anchor="middle" x="635.5" y="-743" font-family="Arial" font-size="10.00" fill="#ffffff">571×</text>
</a>
</g>
</g>
<!-- 348&#45;&gt;74 -->
<g id="edge16" class="edge"><title>348&#45;&gt;74</title>
<path fill="none" stroke="#0d0f73" stroke-width="0.5" d="M634.779,-827.93C634.903,-816.712 635.051,-803.422 635.18,-791.798"/>
<polygon fill="#0d0f73" stroke="#0d0f73" stroke-width="0.5" points="636.405,-791.761 635.219,-788.248 633.956,-791.734 636.405,-791.761"/>
<text text-anchor="middle" x="649.5" y="-811" font-family="Arial" font-size="10.00" fill="#0d0f73">0.52%</text>
<text text-anchor="middle" x="649.5" y="-800" font-family="Arial" font-size="10.00" fill="#0d0f73">567×</text>
</g>
<!-- 39 -->
<g id="node5" class="node"><title>39</title>
<g id="a_node5"><a xlink:title="~">
<polygon fill="#ff0000" stroke="#ff0000" points="583,-788 416,-788 416,-736 583,-736 583,-788"/>
<text text-anchor="middle" x="499.5" y="-776" font-family="Arial" font-size="10.00" fill="#ffffff">~:0:&lt;built&#45;in method builtins.exec&gt;</text>
<text text-anchor="middle" x="499.5" y="-765" font-family="Arial" font-size="10.00" fill="#ffffff">100.00%</text>
<text text-anchor="middle" x="499.5" y="-754" font-family="Arial" font-size="10.00" fill="#ffffff">(0.03%)</text>
<text text-anchor="middle" x="499.5" y="-743" font-family="Arial" font-size="10.00" fill="#ffffff">166×</text>
</a>
</g>
</g>
<!-- 59 -->
<g id="node6" class="node"><title>59</title>
<g id="a_node6"><a xlink:title="parse_wik.py">
<polygon fill="#ff0000" stroke="#ff0000" points="506,-1340 391,-1340 391,-1288 506,-1288 506,-1340"/>
<text text-anchor="middle" x="448.5" y="-1328" font-family="Arial" font-size="10.00" fill="#ffffff">parse_wik:3:&lt;module&gt;</text>
<text text-anchor="middle" x="448.5" y="-1317" font-family="Arial" font-size="10.00" fill="#ffffff">100.00%</text>
<text text-anchor="middle" x="448.5" y="-1306" font-family="Arial" font-size="10.00" fill="#ffffff">(0.00%)</text>
<text text-anchor="middle" x="448.5" y="-1295" font-family="Arial" font-size="10.00" fill="#ffffff">1×</text>
</a>
</g>
</g>
<!-- 39&#45;&gt;59 -->
<g id="edge3" class="edge"><title>39&#45;&gt;59</title>
<path fill="none" stroke="#ff0000" stroke-width="4" d="M500.36,-788.213C500.902,-806.254 501.5,-831.12 501.5,-853 501.5,-1223 501.5,-1223 501.5,-1223 501.5,-1243.69 490.97,-1263.82 479.297,-1279.77"/>
<polygon fill="#ff0000" stroke="#ff0000" stroke-width="4" points="476.499,-1277.67 473.138,-1287.72 482.031,-1281.96 476.499,-1277.67"/>
<text text-anchor="middle" x="521" y="-1041" font-family="Arial" font-size="10.00" fill="#ff0000">100.00%</text>
<text text-anchor="middle" x="521" y="-1030" font-family="Arial" font-size="10.00" fill="#ff0000">1×</text>
</g>
<!-- 559 -->
<g id="node7" class="node"><title>559</title>
<g id="a_node7"><a xlink:title="/usr/lib/python3.5/site&#45;packages/requests/__init__.py">
<polygon fill="#0d1074" stroke="#0d1074" points="373.5,-696 263.5,-696 263.5,-644 373.5,-644 373.5,-696"/>
<text text-anchor="middle" x="318.5" y="-684" font-family="Arial" font-size="10.00" fill="#ffffff">__init__:42:&lt;module&gt;</text>
<text text-anchor="middle" x="318.5" y="-673" font-family="Arial" font-size="10.00" fill="#ffffff">0.71%</text>
<text text-anchor="middle" x="318.5" y="-662" font-family="Arial" font-size="10.00" fill="#ffffff">(0.00%)</text>
<text text-anchor="middle" x="318.5" y="-651" font-family="Arial" font-size="10.00" fill="#ffffff">1×</text>
</a>
</g>
</g>
<!-- 39&#45;&gt;559 -->
<g id="edge4" class="edge"><title>39&#45;&gt;559</title>
<path fill="none" stroke="#0d1074" stroke-width="0.5" d="M449.081,-735.93C425.156,-724.033 396.546,-709.807 372.213,-697.708"/>
<polygon fill="#0d1074" stroke="#0d1074" stroke-width="0.5" points="372.641,-696.553 368.962,-696.092 371.55,-698.747 372.641,-696.553"/>
<text text-anchor="middle" x="445.5" y="-719" font-family="Arial" font-size="10.00" fill="#0d1074">0.71%</text>
<text text-anchor="middle" x="445.5" y="-708" font-family="Arial" font-size="10.00" fill="#0d1074">1×</text>
</g>
<!-- 58 -->
<g id="node10" class="node"><title>58</title>
<g id="a_node10"><a xlink:title="parse_wik.py">
<polygon fill="#fc1300" stroke="#fc1300" points="226,-1248 87,-1248 87,-1196 226,-1196 226,-1248"/>
<text text-anchor="middle" x="156.5" y="-1236" font-family="Arial" font-size="10.00" fill="#ffffff">parse_wik:18:parse_wikitext</text>
<text text-anchor="middle" x="156.5" y="-1225" font-family="Arial" font-size="10.00" fill="#ffffff">98.20%</text>
<text text-anchor="middle" x="156.5" y="-1214" font-family="Arial" font-size="10.00" fill="#ffffff">(0.00%)</text>
<text text-anchor="middle" x="156.5" y="-1203" font-family="Arial" font-size="10.00" fill="#ffffff">74×</text>
</a>
</g>
</g>
<!-- 59&#45;&gt;58 -->
<g id="edge7" class="edge"><title>59&#45;&gt;58</title>
<path fill="none" stroke="#fc1300" stroke-width="3.93" d="M390.888,-1295.43C348.237,-1282.4 288.721,-1264.16 236.5,-1248 236.291,-1247.94 236.083,-1247.87 235.874,-1247.81"/>
<polygon fill="#fc1300" stroke="#fc1300" stroke-width="3.93" points="236.785,-1244.46 226.303,-1244.84 234.732,-1251.08 236.785,-1244.46"/>
<text text-anchor="middle" x="352.5" y="-1271" font-family="Arial" font-size="10.00" fill="#fc1300">98.20%</text>
<text text-anchor="middle" x="352.5" y="-1260" font-family="Arial" font-size="10.00" fill="#fc1300">74×</text>
</g>
<!-- 388 -->
<g id="node12" class="node"><title>388</title>
<g id="a_node12"><a xlink:title="&lt;frozen importlib._bootstrap&gt;">
<polygon fill="#0d1074" stroke="#0d1074" points="417.5,-1248 241.5,-1248 241.5,-1196 417.5,-1196 417.5,-1248"/>
<text text-anchor="middle" x="329.5" y="-1236" font-family="Arial" font-size="10.00" fill="#ffffff">&lt;frozen importlib:966:_find_and_load</text>
<text text-anchor="middle" x="329.5" y="-1225" font-family="Arial" font-size="10.00" fill="#ffffff">0.84%</text>
<text text-anchor="middle" x="329.5" y="-1214" font-family="Arial" font-size="10.00" fill="#ffffff">(0.01%)</text>
<text text-anchor="middle" x="329.5" y="-1203" font-family="Arial" font-size="10.00" fill="#ffffff">185×</text>
</a>
</g>
</g>
<!-- 59&#45;&gt;388 -->
<g id="edge8" class="edge"><title>59&#45;&gt;388</title>
<path fill="none" stroke="#0d1074" stroke-width="0.5" d="M415.352,-1287.93C400.007,-1276.32 381.732,-1262.5 365.995,-1250.6"/>
<polygon fill="#0d1074" stroke="#0d1074" stroke-width="0.5" points="366.414,-1249.38 362.883,-1248.25 364.936,-1251.34 366.414,-1249.38"/>
<text text-anchor="middle" x="417.5" y="-1271" font-family="Arial" font-size="10.00" fill="#0d1074">0.82%</text>
<text text-anchor="middle" x="417.5" y="-1260" font-family="Arial" font-size="10.00" fill="#0d1074">2×</text>
</g>
<!-- 1082 -->
<g id="node13" class="node"><title>1082</title>
<g id="a_node13"><a xlink:title="/usr/lib/python3.5/site&#45;packages/yaml/__init__.py">
<polygon fill="#0d0f73" stroke="#0d0f73" points="615.5,-1248 519.5,-1248 519.5,-1196 615.5,-1196 615.5,-1248"/>
<text text-anchor="middle" x="567.5" y="-1236" font-family="Arial" font-size="10.00" fill="#ffffff">__init__:195:dump</text>
<text text-anchor="middle" x="567.5" y="-1225" font-family="Arial" font-size="10.00" fill="#ffffff">0.57%</text>
<text text-anchor="middle" x="567.5" y="-1214" font-family="Arial" font-size="10.00" fill="#ffffff">(0.00%)</text>
<text text-anchor="middle" x="567.5" y="-1203" font-family="Arial" font-size="10.00" fill="#ffffff">1×</text>
</a>
</g>
</g>
<!-- 59&#45;&gt;1082 -->
<g id="edge9" class="edge"><title>59&#45;&gt;1082</title>
<path fill="none" stroke="#0d0f73" stroke-width="0.5" d="M495.398,-1287.92C499.922,-1285.06 504.363,-1282.06 508.5,-1279 519.807,-1270.63 531.25,-1260.29 541.01,-1250.78"/>
<polygon fill="#0d0f73" stroke="#0d0f73" stroke-width="0.5" points="542.077,-1251.45 543.717,-1248.13 540.361,-1249.7 542.077,-1251.45"/>
<text text-anchor="middle" x="548.5" y="-1271" font-family="Arial" font-size="10.00" fill="#0d0f73">0.57%</text>
<text text-anchor="middle" x="548.5" y="-1260" font-family="Arial" font-size="10.00" fill="#0d0f73">1×</text>
</g>
<!-- 559&#45;&gt;388 -->
<g id="edge21" class="edge"><title>559&#45;&gt;388</title>
<path fill="none" stroke="#0d0f73" stroke-width="0.5" d="M263.181,-689.189C232.104,-703.258 199.5,-726.29 199.5,-761 199.5,-1131 199.5,-1131 199.5,-1131 199.5,-1159.88 221.463,-1180.23 247.333,-1194.17"/>
<polygon fill="#0d0f73" stroke="#0d0f73" stroke-width="0.5" points="246.838,-1195.3 250.506,-1195.84 247.979,-1193.13 246.838,-1195.3"/>
<text text-anchor="middle" x="213.5" y="-949" font-family="Arial" font-size="10.00" fill="#0d0f73">0.50%</text>
<text text-anchor="middle" x="213.5" y="-938" font-family="Arial" font-size="10.00" fill="#0d0f73">3×</text>
</g>
<!-- 53 -->
<g id="node8" class="node"><title>53</title>
<g id="a_node8"><a xlink:title="/usr/lib/python3.5/site&#45;packages/requests/sessions.py">
<polygon fill="#fb1901" stroke="#fb1901" points="175.5,-880 77.5,-880 77.5,-828 175.5,-828 175.5,-880"/>
<text text-anchor="middle" x="126.5" y="-868" font-family="Arial" font-size="10.00" fill="#ffffff">sessions:542:send</text>
<text text-anchor="middle" x="126.5" y="-857" font-family="Arial" font-size="10.00" fill="#ffffff">97.59%</text>
<text text-anchor="middle" x="126.5" y="-846" font-family="Arial" font-size="10.00" fill="#ffffff">(0.01%)</text>
<text text-anchor="middle" x="126.5" y="-835" font-family="Arial" font-size="10.00" fill="#ffffff">74×</text>
</a>
</g>
</g>
<!-- 204 -->
<g id="node9" class="node"><title>204</title>
<g id="a_node9"><a xlink:title="/usr/lib/python3.5/site&#45;packages/requests/adapters.py">
<polygon fill="#fb1a01" stroke="#fb1a01" points="175,-788 78,-788 78,-736 175,-736 175,-788"/>
<text text-anchor="middle" x="126.5" y="-776" font-family="Arial" font-size="10.00" fill="#ffffff">adapters:329:send</text>
<text text-anchor="middle" x="126.5" y="-765" font-family="Arial" font-size="10.00" fill="#ffffff">97.50%</text>
<text text-anchor="middle" x="126.5" y="-754" font-family="Arial" font-size="10.00" fill="#ffffff">(0.01%)</text>
<text text-anchor="middle" x="126.5" y="-743" font-family="Arial" font-size="10.00" fill="#ffffff">74×</text>
</a>
</g>
</g>
<!-- 53&#45;&gt;204 -->
<g id="edge5" class="edge"><title>53&#45;&gt;204</title>
<path fill="none" stroke="#fb1a01" stroke-width="3.9" d="M126.5,-827.93C126.5,-818.743 126.5,-808.166 126.5,-798.253"/>
<polygon fill="#fb1a01" stroke="#fb1a01" stroke-width="3.9" points="129.965,-798.148 126.5,-788.248 123.035,-798.148 129.965,-798.148"/>
<text text-anchor="middle" x="143.5" y="-811" font-family="Arial" font-size="10.00" fill="#fb1a01">97.50%</text>
<text text-anchor="middle" x="143.5" y="-800" font-family="Arial" font-size="10.00" fill="#fb1a01">74×</text>
</g>
<!-- 464 -->
<g id="node15" class="node"><title>464</title>
<g id="a_node15"><a xlink:title="/usr/lib/python3.5/site&#45;packages/urllib3/connectionpool.py">
<polygon fill="#fb1c01" stroke="#fb1c01" points="194,-696 59,-696 59,-644 194,-644 194,-696"/>
<text text-anchor="middle" x="126.5" y="-684" font-family="Arial" font-size="10.00" fill="#ffffff">connectionpool:435:urlopen</text>
<text text-anchor="middle" x="126.5" y="-673" font-family="Arial" font-size="10.00" fill="#ffffff">97.31%</text>
<text text-anchor="middle" x="126.5" y="-662" font-family="Arial" font-size="10.00" fill="#ffffff">(0.01%)</text>
<text text-anchor="middle" x="126.5" y="-651" font-family="Arial" font-size="10.00" fill="#ffffff">74×</text>
</a>
</g>
</g>
<!-- 204&#45;&gt;464 -->
<g id="edge10" class="edge"><title>204&#45;&gt;464</title>
<path fill="none" stroke="#fb1c01" stroke-width="3.89" d="M126.5,-735.93C126.5,-726.743 126.5,-716.166 126.5,-706.253"/>
<polygon fill="#fb1c01" stroke="#fb1c01" stroke-width="3.89" points="129.965,-706.148 126.5,-696.248 123.035,-706.148 129.965,-706.148"/>
<text text-anchor="middle" x="143.5" y="-719" font-family="Arial" font-size="10.00" fill="#fb1c01">97.31%</text>
<text text-anchor="middle" x="143.5" y="-708" font-family="Arial" font-size="10.00" fill="#fb1c01">74×</text>
</g>
<!-- 916 -->
<g id="node11" class="node"><title>916</title>
<g id="a_node11"><a xlink:title="/usr/lib/python3.5/site&#45;packages/requests/api.py">
<polygon fill="#fc1300" stroke="#fc1300" points="177,-1156 112,-1156 112,-1104 177,-1104 177,-1156"/>
<text text-anchor="middle" x="144.5" y="-1144" font-family="Arial" font-size="10.00" fill="#ffffff">api:96:post</text>
<text text-anchor="middle" x="144.5" y="-1133" font-family="Arial" font-size="10.00" fill="#ffffff">98.16%</text>
<text text-anchor="middle" x="144.5" y="-1122" font-family="Arial" font-size="10.00" fill="#ffffff">(0.00%)</text>
<text text-anchor="middle" x="144.5" y="-1111" font-family="Arial" font-size="10.00" fill="#ffffff">74×</text>
</a>
</g>
</g>
<!-- 58&#45;&gt;916 -->
<g id="edge6" class="edge"><title>58&#45;&gt;916</title>
<path fill="none" stroke="#fc1300" stroke-width="3.93" d="M153.157,-1195.93C151.932,-1186.74 150.522,-1176.17 149.2,-1166.25"/>
<polygon fill="#fc1300" stroke="#fc1300" stroke-width="3.93" points="152.609,-1165.6 147.866,-1156.25 145.74,-1166.52 152.609,-1165.6"/>
<text text-anchor="middle" x="169.5" y="-1179" font-family="Arial" font-size="10.00" fill="#fc1300">98.16%</text>
<text text-anchor="middle" x="169.5" y="-1168" font-family="Arial" font-size="10.00" fill="#fc1300">74×</text>
</g>
<!-- 1020 -->
<g id="node29" class="node"><title>1020</title>
<g id="a_node29"><a xlink:title="/usr/lib/python3.5/site&#45;packages/requests/api.py">
<polygon fill="#fc1300" stroke="#fc1300" points="175.5,-1064 97.5,-1064 97.5,-1012 175.5,-1012 175.5,-1064"/>
<text text-anchor="middle" x="136.5" y="-1052" font-family="Arial" font-size="10.00" fill="#ffffff">api:17:request</text>
<text text-anchor="middle" x="136.5" y="-1041" font-family="Arial" font-size="10.00" fill="#ffffff">98.16%</text>
<text text-anchor="middle" x="136.5" y="-1030" font-family="Arial" font-size="10.00" fill="#ffffff">(0.00%)</text>
<text text-anchor="middle" x="136.5" y="-1019" font-family="Arial" font-size="10.00" fill="#ffffff">74×</text>
</a>
</g>
</g>
<!-- 916&#45;&gt;1020 -->
<g id="edge30" class="edge"><title>916&#45;&gt;1020</title>
<path fill="none" stroke="#fc1300" stroke-width="3.93" d="M142.272,-1103.93C141.455,-1094.74 140.515,-1084.17 139.634,-1074.25"/>
<polygon fill="#fc1300" stroke="#fc1300" stroke-width="3.93" points="143.072,-1073.8 138.744,-1064.25 136.169,-1074.42 143.072,-1073.8"/>
<text text-anchor="middle" x="158.5" y="-1087" font-family="Arial" font-size="10.00" fill="#fc1300">98.16%</text>
<text text-anchor="middle" x="158.5" y="-1076" font-family="Arial" font-size="10.00" fill="#fc1300">74×</text>
</g>
<!-- 840 -->
<g id="node21" class="node"><title>840</title>
<g id="a_node21"><a xlink:title="&lt;frozen importlib._bootstrap&gt;">
<polygon fill="#0d1074" stroke="#0d1074" points="476,-1156 255,-1156 255,-1104 476,-1104 476,-1156"/>
<text text-anchor="middle" x="365.5" y="-1144" font-family="Arial" font-size="10.00" fill="#ffffff">&lt;frozen importlib:939:_find_and_load_unlocked</text>
<text text-anchor="middle" x="365.5" y="-1133" font-family="Arial" font-size="10.00" fill="#ffffff">0.84%</text>
<text text-anchor="middle" x="365.5" y="-1122" font-family="Arial" font-size="10.00" fill="#ffffff">(0.00%)</text>
<text text-anchor="middle" x="365.5" y="-1111" font-family="Arial" font-size="10.00" fill="#ffffff">185×</text>
</a>
</g>
</g>
<!-- 388&#45;&gt;840 -->
<g id="edge18" class="edge"><title>388&#45;&gt;840</title>
<path fill="none" stroke="#0d1074" stroke-width="0.5" d="M339.528,-1195.93C344.054,-1184.61 349.423,-1171.19 354.101,-1159.5"/>
<polygon fill="#0d1074" stroke="#0d1074" stroke-width="0.5" points="355.238,-1159.95 355.401,-1156.25 352.964,-1159.04 355.238,-1159.95"/>
<text text-anchor="middle" x="366.5" y="-1179" font-family="Arial" font-size="10.00" fill="#0d1074">0.84%</text>
<text text-anchor="middle" x="366.5" y="-1168" font-family="Arial" font-size="10.00" fill="#0d1074">4×</text>
</g>
<!-- 617 -->
<g id="node24" class="node"><title>617</title>
<g id="a_node24"><a xlink:title="/usr/lib/python3.5/site&#45;packages/yaml/__init__.py">
<polygon fill="#0d0f73" stroke="#0d0f73" points="637,-1156 526,-1156 526,-1104 637,-1104 637,-1156"/>
<text text-anchor="middle" x="581.5" y="-1144" font-family="Arial" font-size="10.00" fill="#ffffff">__init__:162:dump_all</text>
<text text-anchor="middle" x="581.5" y="-1133" font-family="Arial" font-size="10.00" fill="#ffffff">0.57%</text>
<text text-anchor="middle" x="581.5" y="-1122" font-family="Arial" font-size="10.00" fill="#ffffff">(0.00%)</text>
<text text-anchor="middle" x="581.5" y="-1111" font-family="Arial" font-size="10.00" fill="#ffffff">1×</text>
</a>
</g>
</g>
<!-- 1082&#45;&gt;617 -->
<g id="edge32" class="edge"><title>1082&#45;&gt;617</title>
<path fill="none" stroke="#0d0f73" stroke-width="0.5" d="M571.4,-1195.93C573.145,-1184.71 575.212,-1171.42 577.02,-1159.8"/>
<polygon fill="#0d0f73" stroke="#0d0f73" stroke-width="0.5" points="578.245,-1159.89 577.573,-1156.25 575.824,-1159.52 578.245,-1159.89"/>
<text text-anchor="middle" x="590.5" y="-1179" font-family="Arial" font-size="10.00" fill="#0d0f73">0.57%</text>
<text text-anchor="middle" x="590.5" y="-1168" font-family="Arial" font-size="10.00" fill="#0d0f73">1×</text>
</g>
<!-- 672 -->
<g id="node22" class="node"><title>672</title>
<g id="a_node22"><a xlink:title="/usr/lib/python3.5/site&#45;packages/urllib3/connectionpool.py">
<polygon fill="#fb1d01" stroke="#fb1d01" points="211.5,-604 41.5,-604 41.5,-552 211.5,-552 211.5,-604"/>
<text text-anchor="middle" x="126.5" y="-592" font-family="Arial" font-size="10.00" fill="#ffffff">connectionpool:321:_make_request</text>
<text text-anchor="middle" x="126.5" y="-581" font-family="Arial" font-size="10.00" fill="#ffffff">97.21%</text>
<text text-anchor="middle" x="126.5" y="-570" font-family="Arial" font-size="10.00" fill="#ffffff">(0.01%)</text>
<text text-anchor="middle" x="126.5" y="-559" font-family="Arial" font-size="10.00" fill="#ffffff">74×</text>
</a>
</g>
</g>
<!-- 464&#45;&gt;672 -->
<g id="edge20" class="edge"><title>464&#45;&gt;672</title>
<path fill="none" stroke="#fb1d01" stroke-width="3.89" d="M126.5,-643.93C126.5,-634.743 126.5,-624.166 126.5,-614.253"/>
<polygon fill="#fb1d01" stroke="#fb1d01" stroke-width="3.89" points="129.965,-614.148 126.5,-604.248 123.035,-614.148 129.965,-614.148"/>
<text text-anchor="middle" x="143.5" y="-627" font-family="Arial" font-size="10.00" fill="#fb1d01">97.21%</text>
<text text-anchor="middle" x="143.5" y="-616" font-family="Arial" font-size="10.00" fill="#fb1d01">74×</text>
</g>
<!-- 341 -->
<g id="node16" class="node"><title>341</title>
<g id="a_node16"><a xlink:title="/usr/lib/python3.5/socket.py">
<polygon fill="#fa2001" stroke="#fa2001" points="177.5,-144 75.5,-144 75.5,-92 177.5,-92 177.5,-144"/>
<text text-anchor="middle" x="126.5" y="-132" font-family="Arial" font-size="10.00" fill="#ffffff">socket:561:readinto</text>
<text text-anchor="middle" x="126.5" y="-121" font-family="Arial" font-size="10.00" fill="#ffffff">96.83%</text>
<text text-anchor="middle" x="126.5" y="-110" font-family="Arial" font-size="10.00" fill="#ffffff">(0.00%)</text>
<text text-anchor="middle" x="126.5" y="-99" font-family="Arial" font-size="10.00" fill="#ffffff">74×</text>
</a>
</g>
</g>
<!-- 1007 -->
<g id="node17" class="node"><title>1007</title>
<g id="a_node17"><a xlink:title="~">
<polygon fill="#fa2001" stroke="#fa2001" points="247.5,-52 5.5,-52 5.5,-0 247.5,-0 247.5,-52"/>
<text text-anchor="middle" x="126.5" y="-40" font-family="Arial" font-size="10.00" fill="#ffffff">~:0:&lt;method &#39;recv_into&#39; of &#39;_socket.socket&#39; objects&gt;</text>
<text text-anchor="middle" x="126.5" y="-29" font-family="Arial" font-size="10.00" fill="#ffffff">96.83%</text>
<text text-anchor="middle" x="126.5" y="-18" font-family="Arial" font-size="10.00" fill="#ffffff">(96.83%)</text>
<text text-anchor="middle" x="126.5" y="-7" font-family="Arial" font-size="10.00" fill="#ffffff">74×</text>
</a>
</g>
</g>
<!-- 341&#45;&gt;1007 -->
<g id="edge11" class="edge"><title>341&#45;&gt;1007</title>
<path fill="none" stroke="#fa2001" stroke-width="3.87" d="M126.5,-91.93C126.5,-82.7425 126.5,-72.1661 126.5,-62.2526"/>
<polygon fill="#fa2001" stroke="#fa2001" stroke-width="3.87" points="129.93,-62.0477 126.5,-52.2477 123.07,-62.0478 129.93,-62.0477"/>
<text text-anchor="middle" x="143.5" y="-75" font-family="Arial" font-size="10.00" fill="#fa2001">96.83%</text>
<text text-anchor="middle" x="143.5" y="-64" font-family="Arial" font-size="10.00" fill="#fa2001">74×</text>
</g>
<!-- 342&#45;&gt;341 -->
<g id="edge12" class="edge"><title>342&#45;&gt;341</title>
<path fill="none" stroke="#fa2001" stroke-width="3.87" d="M126.5,-183.93C126.5,-174.743 126.5,-164.166 126.5,-154.253"/>
<polygon fill="#fa2001" stroke="#fa2001" stroke-width="3.87" points="129.93,-154.048 126.5,-144.248 123.07,-154.048 129.93,-154.048"/>
<text text-anchor="middle" x="143.5" y="-167" font-family="Arial" font-size="10.00" fill="#fa2001">96.83%</text>
<text text-anchor="middle" x="143.5" y="-156" font-family="Arial" font-size="10.00" fill="#fa2001">74×</text>
</g>
<!-- 345 -->
<g id="node19" class="node"><title>345</title>
<g id="a_node19"><a xlink:title="~">
<polygon fill="#0d1074" stroke="#0d1074" points="407.5,-788 213.5,-788 213.5,-736 407.5,-736 407.5,-788"/>
<text text-anchor="middle" x="310.5" y="-776" font-family="Arial" font-size="10.00" fill="#ffffff">~:0:&lt;built&#45;in method builtins.__import__&gt;</text>
<text text-anchor="middle" x="310.5" y="-765" font-family="Arial" font-size="10.00" fill="#ffffff">0.69%</text>
<text text-anchor="middle" x="310.5" y="-754" font-family="Arial" font-size="10.00" fill="#ffffff">(0.00%)</text>
<text text-anchor="middle" x="310.5" y="-743" font-family="Arial" font-size="10.00" fill="#ffffff">29×</text>
</a>
</g>
</g>
<!-- 345&#45;&gt;388 -->
<g id="edge13" class="edge"><title>345&#45;&gt;388</title>
<path fill="none" stroke="#0d1074" stroke-width="0.5" d="M276.809,-788.344C259.293,-804.596 241.5,-827.405 241.5,-853 241.5,-1131 241.5,-1131 241.5,-1131 241.5,-1157.04 260.56,-1178.33 280.939,-1193.66"/>
<polygon fill="#0d1074" stroke="#0d1074" stroke-width="0.5" points="280.408,-1194.79 283.953,-1195.88 281.86,-1192.82 280.408,-1194.79"/>
<text text-anchor="middle" x="255.5" y="-995" font-family="Arial" font-size="10.00" fill="#0d1074">0.69%</text>
<text text-anchor="middle" x="255.5" y="-984" font-family="Arial" font-size="10.00" fill="#0d1074">7×</text>
</g>
<!-- 347 -->
<g id="node20" class="node"><title>347</title>
<g id="a_node20"><a xlink:title="&lt;frozen importlib._bootstrap&gt;">
<polygon fill="#0d1074" stroke="#0d1074" points="487.5,-880 255.5,-880 255.5,-828 487.5,-828 487.5,-880"/>
<text text-anchor="middle" x="371.5" y="-868" font-family="Arial" font-size="10.00" fill="#ffffff">&lt;frozen importlib:214:_call_with_frames_removed</text>
<text text-anchor="middle" x="371.5" y="-857" font-family="Arial" font-size="10.00" fill="#ffffff">0.83%</text>
<text text-anchor="middle" x="371.5" y="-846" font-family="Arial" font-size="10.00" fill="#ffffff">(0.00%)</text>
<text text-anchor="middle" x="371.5" y="-835" font-family="Arial" font-size="10.00" fill="#ffffff">220×</text>
</a>
</g>
</g>
<!-- 347&#45;&gt;39 -->
<g id="edge14" class="edge"><title>347&#45;&gt;39</title>
<path fill="none" stroke="#0d1074" stroke-width="0.5" d="M407.155,-827.93C423.798,-816.228 443.645,-802.273 460.667,-790.304"/>
<polygon fill="#0d1074" stroke="#0d1074" stroke-width="0.5" points="461.434,-791.263 463.592,-788.248 460.024,-789.259 461.434,-791.263"/>
<text text-anchor="middle" x="465.5" y="-811" font-family="Arial" font-size="10.00" fill="#0d1074">0.83%</text>
<text text-anchor="middle" x="465.5" y="-800" font-family="Arial" font-size="10.00" fill="#0d1074">4×</text>
</g>
<!-- 347&#45;&gt;345 -->
<g id="edge15" class="edge"><title>347&#45;&gt;345</title>
<path fill="none" stroke="#0d1074" stroke-width="0.5" d="M354.508,-827.93C346.773,-816.518 337.586,-802.963 329.612,-791.198"/>
<polygon fill="#0d1074" stroke="#0d1074" stroke-width="0.5" points="330.59,-790.458 327.612,-788.248 328.562,-791.832 330.59,-790.458"/>
<text text-anchor="middle" x="362.5" y="-811" font-family="Arial" font-size="10.00" fill="#0d1074">0.68%</text>
<text text-anchor="middle" x="362.5" y="-800" font-family="Arial" font-size="10.00" fill="#0d1074">6×</text>
</g>
<!-- 840&#45;&gt;347 -->
<g id="edge28" class="edge"><title>840&#45;&gt;347</title>
<path fill="none" stroke="#0d0f73" stroke-width="0.5" d="M410.817,-1103.8C424.917,-1093.46 438.78,-1080.09 446.5,-1064 453.488,-1049.43 456.279,-943.474 445.5,-920 438.734,-905.264 426.826,-892.526 414.515,-882.328"/>
<polygon fill="#0d0f73" stroke="#0d0f73" stroke-width="0.5" points="415.207,-881.312 411.717,-880.058 413.663,-883.215 415.207,-881.312"/>
<text text-anchor="middle" x="467.5" y="-995" font-family="Arial" font-size="10.00" fill="#0d0f73">0.45%</text>
<text text-anchor="middle" x="467.5" y="-984" font-family="Arial" font-size="10.00" fill="#0d0f73">2×</text>
</g>
<!-- 745 -->
<g id="node27" class="node"><title>745</title>
<g id="a_node27"><a xlink:title="&lt;frozen importlib._bootstrap&gt;">
<polygon fill="#0d1074" stroke="#0d1074" points="442,-1064 263,-1064 263,-1012 442,-1012 442,-1064"/>
<text text-anchor="middle" x="352.5" y="-1052" font-family="Arial" font-size="10.00" fill="#ffffff">&lt;frozen importlib:659:_load_unlocked</text>
<text text-anchor="middle" x="352.5" y="-1041" font-family="Arial" font-size="10.00" fill="#ffffff">0.83%</text>
<text text-anchor="middle" x="352.5" y="-1030" font-family="Arial" font-size="10.00" fill="#ffffff">(0.01%)</text>
<text text-anchor="middle" x="352.5" y="-1019" font-family="Arial" font-size="10.00" fill="#ffffff">175×</text>
</a>
</g>
</g>
<!-- 840&#45;&gt;745 -->
<g id="edge29" class="edge"><title>840&#45;&gt;745</title>
<path fill="none" stroke="#0d1074" stroke-width="0.5" d="M361.879,-1103.93C360.258,-1092.71 358.339,-1079.42 356.66,-1067.8"/>
<polygon fill="#0d1074" stroke="#0d1074" stroke-width="0.5" points="357.86,-1067.54 356.147,-1064.25 355.435,-1067.89 357.86,-1067.54"/>
<text text-anchor="middle" x="375.5" y="-1087" font-family="Arial" font-size="10.00" fill="#0d1074">0.83%</text>
<text text-anchor="middle" x="375.5" y="-1076" font-family="Arial" font-size="10.00" fill="#0d1074">4×</text>
</g>
<!-- 717 -->
<g id="node25" class="node"><title>717</title>
<g id="a_node25"><a xlink:title="/usr/lib/python3.5/http/client.py">
<polygon fill="#fa1e01" stroke="#fa1e01" points="186,-512 67,-512 67,-460 186,-460 186,-512"/>
<text text-anchor="middle" x="126.5" y="-500" font-family="Arial" font-size="10.00" fill="#ffffff">client:1130:getresponse</text>
<text text-anchor="middle" x="126.5" y="-489" font-family="Arial" font-size="10.00" fill="#ffffff">97.03%</text>
<text text-anchor="middle" x="126.5" y="-478" font-family="Arial" font-size="10.00" fill="#ffffff">(0.00%)</text>
<text text-anchor="middle" x="126.5" y="-467" font-family="Arial" font-size="10.00" fill="#ffffff">74×</text>
</a>
</g>
</g>
<!-- 672&#45;&gt;717 -->
<g id="edge24" class="edge"><title>672&#45;&gt;717</title>
<path fill="none" stroke="#fa1e01" stroke-width="3.88" d="M126.5,-551.93C126.5,-542.743 126.5,-532.166 126.5,-522.253"/>
<polygon fill="#fa1e01" stroke="#fa1e01" stroke-width="3.88" points="129.965,-522.148 126.5,-512.248 123.035,-522.148 129.965,-522.148"/>
<text text-anchor="middle" x="143.5" y="-535" font-family="Arial" font-size="10.00" fill="#fa1e01">97.03%</text>
<text text-anchor="middle" x="143.5" y="-524" font-family="Arial" font-size="10.00" fill="#fa1e01">74×</text>
</g>
<!-- 590 -->
<g id="node23" class="node"><title>590</title>
<g id="a_node23"><a xlink:title="/usr/lib/python3.5/site&#45;packages/yaml/representer.py">
<polygon fill="#0d0f73" stroke="#0d0f73" points="673.5,-1064 551.5,-1064 551.5,-1012 673.5,-1012 673.5,-1064"/>
<text text-anchor="middle" x="612.5" y="-1052" font-family="Arial" font-size="10.00" fill="#ffffff">representer:25:represent</text>
<text text-anchor="middle" x="612.5" y="-1041" font-family="Arial" font-size="10.00" fill="#ffffff">0.56%</text>
<text text-anchor="middle" x="612.5" y="-1030" font-family="Arial" font-size="10.00" fill="#ffffff">(0.00%)</text>
<text text-anchor="middle" x="612.5" y="-1019" font-family="Arial" font-size="10.00" fill="#ffffff">1×</text>
</a>
</g>
</g>
<!-- 590&#45;&gt;35 -->
<g id="edge22" class="edge"><title>590&#45;&gt;35</title>
<path fill="none" stroke="#0d0f73" stroke-width="0.5" d="M615.007,-1011.93C616.129,-1000.71 617.458,-987.422 618.62,-975.798"/>
<polygon fill="#0d0f73" stroke="#0d0f73" stroke-width="0.5" points="619.846,-975.852 618.975,-972.248 617.408,-975.608 619.846,-975.852"/>
<text text-anchor="middle" x="632.5" y="-995" font-family="Arial" font-size="10.00" fill="#0d0f73">0.55%</text>
<text text-anchor="middle" x="632.5" y="-984" font-family="Arial" font-size="10.00" fill="#0d0f73">1×</text>
</g>
<!-- 617&#45;&gt;590 -->
<g id="edge23" class="edge"><title>617&#45;&gt;590</title>
<path fill="none" stroke="#0d0f73" stroke-width="0.5" d="M590.135,-1103.93C593.999,-1092.71 598.577,-1079.42 602.581,-1067.8"/>
<polygon fill="#0d0f73" stroke="#0d0f73" stroke-width="0.5" points="603.822,-1067.96 603.804,-1064.25 601.505,-1067.16 603.822,-1067.96"/>
<text text-anchor="middle" x="615.5" y="-1087" font-family="Arial" font-size="10.00" fill="#0d0f73">0.56%</text>
<text text-anchor="middle" x="615.5" y="-1076" font-family="Arial" font-size="10.00" fill="#0d0f73">1×</text>
</g>
<!-- 717&#45;&gt;22 -->
<g id="edge25" class="edge"><title>717&#45;&gt;22</title>
<path fill="none" stroke="#fa1f01" stroke-width="3.88" d="M126.5,-459.93C126.5,-450.743 126.5,-440.166 126.5,-430.253"/>
<polygon fill="#fa1f01" stroke="#fa1f01" stroke-width="3.88" points="129.93,-430.048 126.5,-420.248 123.07,-430.048 129.93,-430.048"/>
<text text-anchor="middle" x="143.5" y="-443" font-family="Arial" font-size="10.00" fill="#fa1f01">97.02%</text>
<text text-anchor="middle" x="143.5" y="-432" font-family="Arial" font-size="10.00" fill="#fa1f01">74×</text>
</g>
<!-- 742 -->
<g id="node26" class="node"><title>742</title>
<g id="a_node26"><a xlink:title="/usr/lib/python3.5/site&#45;packages/requests/sessions.py">
<polygon fill="#fc1400" stroke="#fc1400" points="181.5,-972 71.5,-972 71.5,-920 181.5,-920 181.5,-972"/>
<text text-anchor="middle" x="126.5" y="-960" font-family="Arial" font-size="10.00" fill="#ffffff">sessions:392:request</text>
<text text-anchor="middle" x="126.5" y="-949" font-family="Arial" font-size="10.00" fill="#ffffff">98.04%</text>
<text text-anchor="middle" x="126.5" y="-938" font-family="Arial" font-size="10.00" fill="#ffffff">(0.01%)</text>
<text text-anchor="middle" x="126.5" y="-927" font-family="Arial" font-size="10.00" fill="#ffffff">74×</text>
</a>
</g>
</g>
<!-- 742&#45;&gt;53 -->
<g id="edge26" class="edge"><title>742&#45;&gt;53</title>
<path fill="none" stroke="#fb1901" stroke-width="3.9" d="M126.5,-919.93C126.5,-910.743 126.5,-900.166 126.5,-890.253"/>
<polygon fill="#fb1901" stroke="#fb1901" stroke-width="3.9" points="129.965,-890.148 126.5,-880.248 123.035,-890.148 129.965,-890.148"/>
<text text-anchor="middle" x="143.5" y="-903" font-family="Arial" font-size="10.00" fill="#fb1901">97.59%</text>
<text text-anchor="middle" x="143.5" y="-892" font-family="Arial" font-size="10.00" fill="#fb1901">74×</text>
</g>
<!-- 1294 -->
<g id="node28" class="node"><title>1294</title>
<g id="a_node28"><a xlink:title="&lt;frozen importlib._bootstrap_external&gt;">
<polygon fill="#0d1074" stroke="#0d1074" points="441,-972 272,-972 272,-920 441,-920 441,-972"/>
<text text-anchor="middle" x="356.5" y="-960" font-family="Arial" font-size="10.00" fill="#ffffff">&lt;frozen importlib:656:exec_module</text>
<text text-anchor="middle" x="356.5" y="-949" font-family="Arial" font-size="10.00" fill="#ffffff">0.83%</text>
<text text-anchor="middle" x="356.5" y="-938" font-family="Arial" font-size="10.00" fill="#ffffff">(0.00%)</text>
<text text-anchor="middle" x="356.5" y="-927" font-family="Arial" font-size="10.00" fill="#ffffff">153×</text>
</a>
</g>
</g>
<!-- 745&#45;&gt;1294 -->
<g id="edge27" class="edge"><title>745&#45;&gt;1294</title>
<path fill="none" stroke="#0d1074" stroke-width="0.5" d="M353.614,-1011.93C354.113,-1000.71 354.703,-987.422 355.22,-975.798"/>
<polygon fill="#0d1074" stroke="#0d1074" stroke-width="0.5" points="356.446,-975.799 355.378,-972.248 353.999,-975.69 356.446,-975.799"/>
<text text-anchor="middle" x="369.5" y="-995" font-family="Arial" font-size="10.00" fill="#0d1074">0.83%</text>
<text text-anchor="middle" x="369.5" y="-984" font-family="Arial" font-size="10.00" fill="#0d1074">4×</text>
</g>
<!-- 1294&#45;&gt;347 -->
<g id="edge33" class="edge"><title>1294&#45;&gt;347</title>
<path fill="none" stroke="#0d1074" stroke-width="0.5" d="M360.678,-919.93C362.548,-908.712 364.763,-895.422 366.7,-883.798"/>
<polygon fill="#0d1074" stroke="#0d1074" stroke-width="0.5" points="367.925,-883.902 367.292,-880.248 365.508,-883.499 367.925,-883.902"/>
<text text-anchor="middle" x="380.5" y="-903" font-family="Arial" font-size="10.00" fill="#0d1074">0.83%</text>
<text text-anchor="middle" x="380.5" y="-892" font-family="Arial" font-size="10.00" fill="#0d1074">4×</text>
</g>
<!-- 1020&#45;&gt;742 -->
<g id="edge31" class="edge"><title>1020&#45;&gt;742</title>
<path fill="none" stroke="#fc1400" stroke-width="3.92" d="M133.714,-1011.93C132.694,-1002.74 131.518,-992.166 130.417,-982.253"/>
<polygon fill="#fc1400" stroke="#fc1400" stroke-width="3.92" points="133.842,-981.704 129.305,-972.248 126.955,-982.47 133.842,-981.704"/>
<text text-anchor="middle" x="150.5" y="-995" font-family="Arial" font-size="10.00" fill="#fc1400">98.04%</text>
<text text-anchor="middle" x="150.5" y="-984" font-family="Arial" font-size="10.00" fill="#fc1400">74×</text>
</g>
</g>
</svg>
